HIERARCHY
ROOT Hips
{
 OFFSET 0.000000 0.000000 0.000000
 CHANNELS 6 Xposition Yposition Zposition Yrotation Xrotation Zrotation
 JOINT Chest
 {
  OFFSET 0.000000 9.585900 0.002600
  CHANNELS 3 Yrotation Xrotation Zrotation
  JOINT Chest2
  {
   OFFSET 0.000000 9.601200 -0.005300
   CHANNELS 3 Yrotation Xrotation Zrotation
   JOINT Chest3
   {
    OFFSET 0.000000 9.561800 0.000000
    CHANNELS 3 Yrotation Xrotation Zrotation
    JOINT Chest4
    {
     OFFSET 0.000000 9.552100 0.000000
     CHANNELS 3 Yrotation Xrotation Zrotation
     JOINT Neck
     {
      OFFSET 0.000000 14.453000 0.000000
      CHANNELS 3 Yrotation Xrotation Zrotation
      JOINT Head
      {
       OFFSET 0.000000 8.936500 -0.011300
       CHANNELS 3 Yrotation Xrotation Zrotation
       End Site
       {
        OFFSET 0.000000 17.073600 -0.006000
       }
      }
     }
     JOINT RightCollar
     {
      OFFSET -2.921100 9.558500 0.000000
      CHANNELS 3 Yrotation Xrotation Zrotation
      JOINT RightShoulder
      {
       OFFSET -13.519700 0.000000 0.000000
       CHANNELS 3 Yrotation Xrotation Zrotation
       JOINT RightElbow
       {
        OFFSET 0.000000 -29.696600 0.000000
        CHANNELS 3 Yrotation Xrotation Zrotation
        JOINT RightWrist
        {
         OFFSET 0.000000 -24.004700 0.000000
         CHANNELS 3 Yrotation Xrotation Zrotation
         End Site
         {
          OFFSET 0.000000 -17.728500 0.000000
         }
        }
       }
      }
     }
     JOINT LeftCollar
     {
      OFFSET 2.921100 9.558500 0.000000
      CHANNELS 3 Yrotation Xrotation Zrotation
      JOINT LeftShoulder
      {
       OFFSET 13.519700 0.000000 0.000000
       CHANNELS 3 Yrotation Xrotation Zrotation
       JOINT LeftElbow
       {
        OFFSET 0.000000 -29.696600 0.000000
        CHANNELS 3 Yrotation Xrotation Zrotation
        JOINT LeftWrist
        {
         OFFSET 0.000000 -24.004700 0.000000
         CHANNELS 3 Yrotation Xrotation Zrotation
         End Site
         {
          OFFSET 0.000000 -17.728500 0.000000
         }
        }
       }
      }
     }
    }
   }
  }
 }
 JOINT RightHip
 {
  OFFSET -7.771700 -0.012900 -0.001300
  CHANNELS 3 Yrotation Xrotation Zrotation
  JOINT RightKnee
  {
   OFFSET 0.000000 -40.869800 0.001200
   CHANNELS 3 Yrotation Xrotation Zrotation
   JOINT RightAnkle
   {
    OFFSET 0.000000 -39.717900 0.002100
    CHANNELS 3 Yrotation Xrotation Zrotation
    JOINT RightToe
    {
     OFFSET 0.000000 -4.965400 11.033500
     CHANNELS 3 Yrotation Xrotation Zrotation
     End Site
     {
      OFFSET 0.000000 -1.423100 5.872300
     }
    }
   }
  }
 }
 JOINT LeftHip
 {
  OFFSET 7.771700 -0.012900 -0.001300
  CHANNELS 3 Yrotation Xrotation Zrotation
  JOINT LeftKnee
  {
   OFFSET 0.000000 -40.869800 0.001200
   CHANNELS 3 Yrotation Xrotation Zrotation
   JOINT LeftAnkle
   {
    OFFSET 0.000000 -39.717900 0.002100
    CHANNELS 3 Yrotation Xrotation Zrotation
    JOINT LeftToe
    {
     OFFSET 0.000000 -4.965400 11.033500
     CHANNELS 3 Yrotation Xrotation Zrotation
     End Site
     {
      OFFSET 0.000000 -1.423100 5.872300
     }
    }
   }
  }
 }
}
MOTION
Frames: 11
Frame Time: 0.008333
-87.921874 62.031578 18.203144 173.293491 -48.595596 -0.959292 4.268841 26.485718 1.044089 0.630320 4.452477 0.159211 1.008903 7.068581 0.276447 3.304350 21.521098 1.283595 -0.650701 15.204723 -0.433923 -1.055604 -7.560001 -0.570485 5.664106 5.167131 3.930455 -7.193290 -9.173349 -12.903480 -141.584499 -58.141582 168.414206 14.286434 6.154319 14.141688 -8.454459 1.833644 -0.747341 1.353482 -4.400976 17.234035 147.506774 -69.919707 -170.584245 1.014372 7.034768 -3.487970 3.272263 -18.784963 -3.019314 -1.647166 60.664329 -4.834251 2.463421 -5.509733 10.065298 0.255185 -0.527355 0.120130 -3.429176 -15.106821 5.560522 28.341120 76.214319 29.973415 1.075491 -11.415550 -5.196132 0.308382 0.751799 0.142101
-87.922826 62.031535 18.203366 173.284995 -48.585420 -0.954395 4.272812 26.469693 1.041966 0.630381 4.446583 0.158771 1.008831 7.059891 0.275686 3.307922 21.524821 1.285059 -0.603970 15.155602 -0.426931 -0.972518 -7.621265 -0.567191 5.674189 5.188199 3.931690 -7.142068 -9.213186 -12.910003 -141.486074 -58.170717 168.329920 14.257106 6.160919 14.132929 -8.452209 1.842521 -0.753416 1.342432 -4.409466 17.247069 147.404102 -69.929866 -170.498001 1.089496 7.005930 -3.471971 3.284551 -18.796572 -3.019400 -1.653990 60.665550 -4.837802 2.462517 -5.505497 10.069965 0.255185 -0.531318 0.117966 -3.425487 -15.116264 5.562288 28.341079 76.214281 29.973132 1.076316 -11.416238 -5.198571 0.312480 0.751696 0.143142
-87.924552 62.030993 18.203954 173.283219 -48.570649 -0.950743 4.269908 26.448299 1.036838 0.630642 4.440336 0.158051 1.009400 7.050508 0.274424 3.310931 21.530071 1.285719 -0.550455 15.105401 -0.420149 -0.879366 -7.691311 -0.561715 5.693243 5.219683 3.935313 -7.112703 -9.256624 -12.915188 -141.349922 -58.194367 168.234897 14.209793 6.162339 14.125808 -8.447345 1.855496 -0.760274 1.327404 -4.423526 17.255211 147.163232 -69.938947 -170.304987 1.148918 6.948825 -3.425977 3.287380 -18.811052 -3.022407 -1.656070 60.663643 -4.842542 2.462399 -5.503787 10.076953 0.255297 -0.531231 0.114357 -3.425591 -15.130059 5.559522 28.333354 76.211272 29.963625 1.080382 -11.417545 -5.194765 0.307608 0.755164 0.139804
-87.925559 62.031161 18.204029 173.284072 -48.560812 -0.953202 4.272921 26.432474 1.035212 0.635300 4.430218 0.152355 1.005731 7.046431 0.279944 3.313519 21.519284 1.285179 -0.522157 15.101305 -0.410056 -0.740885 -7.817328 -0.559055 5.702913 5.262435 3.945221 -7.074335 -9.297149 -12.922144 -141.147694 -58.219459 168.095644 14.129328 6.155030 14.115554 -8.442883 1.885463 -0.763335 1.295774 -4.446220 17.257918 147.007193 -69.962480 -170.163266 1.276155 6.853697 -3.407788 3.290995 -18.819819 -3.020893 -1.663801 60.662053 -4.847640 2.455249 -5.500890 10.080928 0.251628 -0.530405 0.113165 -3.427480 -15.138914 5.561116 28.311681 76.212020 29.943964 1.082304 -11.418964 -5.194404 0.309828 0.756747 0.138612
-87.926639 62.031464 18.203949 173.287952 -48.551447 -0.957132 4.283621 26.422574 1.027074 0.630294 4.424948 0.159226 1.007797 7.037235 0.280080 3.320207 21.495893 1.270907 -0.493230 15.103252 -0.380417 -0.582271 -7.970328 -0.550405 5.701943 5.304627 3.975827 -7.031470 -9.329087 -12.933395 -140.845291 -58.240516 167.885175 14.008835 6.135915 14.098762 -8.448834 1.926228 -0.743557 1.258701 -4.468385 17.255493 146.615061 -69.974541 -169.816320 1.376874 6.714538 -3.395044 3.292418 -18.826475 -3.022685 -1.666036 60.657985 -4.846314 2.453162 -5.499490 10.086021 0.253750 -0.528292 0.110356 -3.431557 -15.147875 5.558526 28.312706 76.210258 29.947855 1.088980 -11.417596 -5.195904 0.306158 0.756778 0.136736
-87.925292 62.030263 18.205476 173.289923 -48.529245 -0.974412 4.292008 26.400488 1.039411 0.629106 4.422670 0.161825 1.011211 7.028008 0.271636 3.321433 21.500893 1.279499 -0.365012 14.968505 -0.367449 -0.496343 -8.041195 -0.518150 5.707795 5.317532 3.979382 -6.993468 -9.359184 -12.947837 -140.420000 -58.253025 167.587473 13.852067 6.102842 14.064206 -8.433348 1.940711 -0.754629 1.208106 -4.501000 17.263664 146.038994 -69.961788 -169.317974 1.481929 6.556692 -3.406053 3.287236 -18.849205 -3.006901 -1.663832 60.654238 -4.844530 2.455051 -5.493181 10.090329 0.250618 -0.530400 0.107557 -3.439810 -15.170354 5.575947 28.295418 76.215553 29.938501 1.087102 -11.425390 -5.207165 0.317273 0.759181 0.142826
-87.925909 62.030000 18.205736 173.294180 -48.514196 -0.979766 4.292883 26.387549 1.036420 0.632579 4.421350 0.155174 1.016387 7.026550 0.256131 3.328124 21.488508 1.290225 -0.259938 14.879758 -0.332761 -0.363757 -8.164926 -0.488692 5.711609 5.350132 3.991787 -6.971336 -9.396591 -12.947093 -139.881273 -58.250049 167.219815 13.664109 6.054796 14.003952 -8.420245 1.969509 -0.747386 1.174363 -4.536703 17.265767 145.357728 -69.915913 -168.751235 1.623082 6.396205 -3.459811 3.284174 -18.863614 -3.004553 -1.662691 60.653458 -4.844705 2.448882 -5.492018 10.090745 0.254914 -0.530276 0.108836 -3.445878 -15.185333 5.579916 28.293431 76.216373 29.935783 1.083753 -11.428357 -5.204683 0.325397 0.760317 0.141218
-87.926315 62.029910 18.205649 173.293006 -48.500078 -0.980893 4.298324 26.381060 1.027556 0.633386 4.419205 0.154134 1.016399 7.023343 0.262743 3.330319 21.484698 1.277650 -0.162767 14.803367 -0.297079 -0.199741 -8.319036 -0.460386 5.715025 5.379401 4.002466 -6.965877 -9.430465 -12.938029 -139.262233 -58.227568 166.816179 13.440766 5.994637 13.911984 -8.404914 1.989879 -0.747106 1.151085 -4.570222 17.274292 144.501489 -69.830390 -168.049166 1.773298 6.234982 -3.550153 3.286762 -18.879915 -3.000696 -1.676110 60.656645 -4.859611 2.447595 -5.485760 10.093884 0.252827 -0.536414 0.109390 -3.454557 -15.197962 5.582650 28.305010 76.216765 29.939573 1.095472 -11.433535 -5.200935 0.317759 0.763815 0.136535
-87.926199 62.029483 18.205664 173.297648 -48.482620 -0.988596 4.309557 26.390415 1.018403 0.634938 4.417308 0.152487 1.010064 7.001671 0.277155 3.334068 21.486263 1.267339 -0.060789 14.721034 -0.259592 -0.023910 -8.484146 -0.429634 5.727039 5.432055 3.999940 -6.952097 -9.511622 -12.936511 -138.550700 -58.196999 166.316698 13.173021 5.924123 13.775393 -8.374578 2.004349 -0.774573 1.113418 -4.594534 17.317502 143.490054 -69.706418 -167.221499 1.936241 6.066214 -3.661279 3.284116 -18.898148 -2.994008 -1.687742 60.657569 -4.872918 2.445117 -5.481161 10.095779 0.250882 -0.539913 0.110200 -3.464058 -15.214205 5.587473 28.303415 76.215557 29.941397 1.089307 -11.436335 -5.208534 0.327649 0.766677 0.138960
-87.926101 62.029099 18.205326 173.301143 -48.464979 -0.994532 4.312943 26.391219 1.012903 0.635662 4.417517 0.151578 1.015224 6.995451 0.276766 3.338900 21.484746 1.264301 0.042786 14.632717 -0.218523 0.165607 -8.663210 -0.395704 5.724012 5.427411 4.014135 -6.916348 -9.568487 -13.006895 -137.712721 -58.146415 165.685393 12.860319 5.833399 13.583911 -8.372069 2.000215 -0.767329 1.114740 -4.625153 17.313640 142.337975 -69.584214 -166.298101 2.118647 5.885084 -3.774186 3.280925 -18.915692 -2.990718 -1.690646 60.657606 -4.876478 2.444208 -5.479144 10.097221 0.249234 -0.540631 0.109795 -3.472088 -15.230973 5.592658 28.275509 76.219221 29.914260 1.095271 -11.438626 -5.212638 0.330338 0.766984 0.141793
-87.925372 62.029198 18.204321 173.303797 -48.450620 -1.003097 4.315887 26.386783 1.014781 0.640195 4.429769 0.144434 1.019089 7.017954 0.262673 3.341898 21.479639 1.260424 0.165230 14.514848 -0.162413 0.367928 -8.853350 -0.354986 5.734898 5.418796 4.032439 -6.913556 -9.628115 -13.036262 -136.881359 -58.087899 165.098759 12.509370 5.710156 13.337769 -8.347578 1.980631 -0.765356 1.153887 -4.717242 17.318648 140.998965 -69.474856 -165.269188 2.316803 5.690129 -3.892088 3.278151 -18.930350 -2.984376 -1.689598 60.659154 -4.875581 2.444430 -5.475406 10.099278 0.251203 -0.543752 0.109318 -3.479230 -15.244813 5.601429 28.278335 76.222422 29.914880 1.103941 -11.441179 -5.214159 0.331473 0.766686 0.142778
